# xmcd CD database file
#
# Track frame offsets:
#	150
#	30682
#	46387
#	65722
#	79755
#	99890
#	135580
#
# Disc length: 2170 seconds
#
# Revision: 0
# Processed by: cddbd v1.4PL0 Copyright (c) Steve Scherf et al.
# Submitted via: Feurio! 1.65 - http://www.feurio.com
#
DISCID=55087807
DTITLE=Anderson, Miller - Bright City
DYEAR=1971
DGENRE=
TTITLE0=Alice Mercy (To Whom It May Concern)
TTITLE1=The Age Of Progress
TTITLE2=Nothing In this World
TTITLE3=Bright City
TTITLE4=Grey Broken Morning
TTITLE5=High Tide, High Water
TTITLE6=Shadows 'Cross My Wall
EXTD=
EXTT0=
EXTT1=
EXTT2=
EXTT3=
EXTT4=
EXTT5=
EXTT6=
PLAYORDER=
